<?xml version="1.0" encoding="utf-8"?>
<!-- Generator: Adobe Illustrator 28.0.0, SVG Export Plug-In . SVG Version: 6.00 Build 0)  -->
<svg version="1.1" id="Layer_1" xmlns="http://www.w3.org/2000/svg" xmlns:xlink="http://www.w3.org/1999/xlink" x="0px" y="0px"
	 viewBox="0 0 962.2 605.9" style="enable-background:new 0 0 962.2 605.9;" xml:space="preserve">
<style type="text/css">
	.st0{stroke:#000000;stroke-width:5.3358;}
	.st1{fill:#D9D9D9;}
	.st2{fill:#A3A3A3;}
	.st3{fill:none;stroke:#000000;stroke-width:3.2015;}
	.st4{fill:url(#SVGID_1_);}
	.st5{fill:none;stroke:#000000;stroke-width:5.3358;}
	.st6{fill:url(#SVGID_00000151543520615320140930000004561329144025510037_);}
	.st7{fill:url(#SVGID_00000027602844874811344250000016929640245682150587_);}
	.st8{fill:url(#SVGID_00000057870250086036108780000004755185487880679049_);filter:url(#Adobe_OpacityMaskFilter);}
	.st9{fill:url(#SVGID_00000120549452766423671000000014972982913749577639_);}
	.st10{fill:url(#SVGID_00000126302788023391994200000017824632744160876436_);}
	.st11{mask:url(#mask0_27_2576_00000016757350595881897540000000110141558342853807_);}
	.st12{opacity:0.82;fill-rule:evenodd;clip-rule:evenodd;fill:#F09731;enable-background:new    ;}
	.st13{fill:none;stroke:#FF8800;stroke-width:5.3358;stroke-opacity:0.63;}
	.st14{clip-path:url(#SVGID_00000029043958556841347230000013494458411660252332_);}
	.st15{fill-rule:evenodd;clip-rule:evenodd;fill:#FFAA00;stroke:#000000;stroke-width:3.2015;}
	.st16{fill-rule:evenodd;clip-rule:evenodd;}
</style>
<g>
	<path d="M750.9,161.2c-104.4-21.4-113.5,240-6.7,244.2C821.7,408.2,919.5,196,750.9,161.2z M766.7,458l1,0
		C576.7,499.6,575.9,158.8,695,107.3C892.9,22.1,990.6,409.2,766.7,458z"/>
	<path class="st0" d="M768.3,460.6l0-0.2c56.3-12.6,92.5-46.4,112-88.7c19.5-42.5,22.1-93.4,11.4-140
		c-10.7-46.6-34.7-89.1-68.8-114.6c-34.2-25.6-78.4-34-128.8-12.2l0,0c-30.8,13.3-53.4,45.1-67.3,84c-13.8,38.9-19,85.5-14.3,129.1
		c4.6,43.5,19,84.5,44.7,111.9C682.8,457.4,719.6,471.2,768.3,460.6z M799.7,371.6c-17.2,19.8-37.1,31.8-55.3,31.1
		c-25.4-1-44.2-17.3-56.4-41.5C675.6,337,670.1,305,671,273.8c1-31.3,8.5-61.6,22-82.6c6.7-10.5,14.9-18.6,24.4-23.4
		c9.5-4.8,20.4-6.5,32.9-3.9c41.5,8.6,66.3,28,79.2,51.9c12.9,24,14.2,53,7.7,81.1C830.8,325,816.8,351.9,799.7,371.6z"/>
</g>
<g>
	<path d="M467.6,245.3c-94.1-5.6-91.2,143.2,4.3,138.8C541.2,380.8,619.6,254.4,467.6,245.3z M494.2,412.5l0.9-0.1
		C326.3,448,311.2,255,415.4,218.3C588.5,157.4,692,370.6,494.2,412.5z"/>
	<path class="st0" d="M495.7,414.9c49.4-10.6,80.5-32,96.3-57.6c15.9-25.8,16.1-55.4,4.4-81.5c-23.4-52.3-94.1-90.8-181.8-60l0,0
		c-53.7,18.9-76.4,77.9-64.2,127.3c6.1,24.8,20.9,47.4,45.2,61.5C419.7,418.6,453,424,495.7,415L495.7,414.9z M520.1,360.2
		c-14.4,12.2-31.8,20.4-48.4,21.2c-23.1,1.1-40.4-7.1-52.1-19.8c-11.7-12.7-17.9-30.1-18.4-47.5c-0.4-17.4,4.9-34.7,15.8-47.2
		c10.9-12.4,27.5-20.4,50.3-19.1c37.7,2.2,60.5,11.8,72.8,24.2c12.1,12.4,14.4,28.1,9.9,43.9C545.7,332.1,534.5,348,520.1,360.2z"/>
</g>
<g>
	<path d="M111,235c4.4,19.8,9,41.5,13.7,64.4C300.2,263.9,295.2,184.7,111,235z M253.4,324.6c52.9,77.8,115.8,141.4,156.5,204.6
		l-62.3,29.9c-64.1-76.8-103.1-121.7-158.5-206.3c-15.3,5.2-32.6,10-51.1,14.3c12.7,67.7,23.6,136.2,27.9,181.3l-68.9,6.5
		c-9.3-105.3-40.5-255.3-65.5-358.6C311,77.1,412.9,232.4,253.4,324.6z"/>
	<path class="st0" d="M257.2,325.5c38.7-22.9,62-49.8,70.6-75.7c8.8-26.7,2-52.1-19-70.6c-20.9-18.3-55.6-29.5-102.4-28.7
		c-46.8,0.8-105.9,13.5-176,43.5l-2.1,0.9l0.5,2.2C53.8,300.2,85,450,94.2,555.2l0.2,2.7l2.7-0.3l68.9-6.5l2.7-0.3l-0.3-2.7
		c-4.2-44.7-14.9-112.1-27.4-179c16.9-4,32.7-8.4,46.9-13.1c50.4,76.8,87.5,121,142.5,186.8c4.9,5.8,9.9,11.8,15.1,18l1.3,1.6
		l1.9-0.9l62.3-29.9l2.7-1.3l-1.6-2.5c-20.5-31.7-46.5-63.5-73.9-97l-0.2-0.3C311.2,397.6,283.1,363.2,257.2,325.5z M126.7,296.3
		c-4.3-21-8.5-41-12.6-59.4c44.7-12,78.5-16.3,101.3-15.4c11.6,0.4,20.3,2.2,26,4.8c5.8,2.6,8.2,5.8,8.6,9c0.4,3.3-1.2,7.7-6,13
		c-4.8,5.2-12.4,10.9-22.9,16.6C200.6,276.2,169.1,287.5,126.7,296.3z"/>
</g>
<g>
	
		<rect x="681.4" y="314.3" transform="matrix(0.2188 -0.9758 0.9758 0.2188 293.1321 1009.8768)" class="st1" width="191.7" height="15.1"/>
</g>
<polygon class="st2" points="788.9,268.7 761.8,390.9 771.7,388.3 799.2,265.9 "/>
<rect x="679.8" y="312.7" transform="matrix(0.2188 -0.9758 0.9758 0.2188 293.132 1009.8765)" class="st3" width="194.9" height="18.3"/>
<g>
	
		<linearGradient id="SVGID_1_" gradientUnits="userSpaceOnUse" x1="179.7526" y1="749.124" x2="245.0076" y2="339.9689" gradientTransform="matrix(1 0 0 -1 564 864.6627)">
		<stop  offset="0" style="stop-color:#FBD359"/>
		<stop  offset="1" style="stop-color:#F09731"/>
	</linearGradient>
	<path class="st4" d="M764.3,138c-104.4-21.4-113.5,240-6.7,244.2C835.1,385,932.9,172.9,764.3,138z M780.1,434.9l1,0
		C590,476.4,589.2,135.7,708.4,84.2C906.3-1.1,1003.9,386,780.1,434.9z"/>
	<path class="st5" d="M781.6,437.4l0-0.2c56.3-12.6,92.5-46.4,112-88.7c19.5-42.5,22.1-93.4,11.4-140
		C894.3,162,870.3,119.5,836.2,94c-34.2-25.6-78.4-34-128.8-12.2l0,0c-30.8,13.3-53.4,45.1-67.3,84c-13.8,38.9-19,85.5-14.3,129.1
		c4.6,43.5,19,84.5,44.7,111.9C696.1,434.3,733,448,781.6,437.4z M813,348.4c-17.2,19.8-37.1,31.8-55.3,31.1
		c-25.4-1-44.2-17.3-56.4-41.5c-12.3-24.3-17.8-56.2-16.9-87.5c1-31.3,8.5-61.6,22-82.6c6.7-10.5,14.9-18.6,24.4-23.4
		c9.5-4.8,20.4-6.5,32.9-3.9c41.5,8.6,66.3,28,79.2,51.9c12.9,24,14.2,53,7.7,81.1C844.2,301.8,830.2,328.7,813,348.4z"/>
</g>
<g>
	
		<linearGradient id="SVGID_00000137822270461093460660000005449036675022218632_" gradientUnits="userSpaceOnUse" x1="-95.884" y1="677.8796" x2="-44.625" y2="419.7716" gradientTransform="matrix(1 0 0 -1 564 864.6627)">
		<stop  offset="0" style="stop-color:#FDD354"/>
		<stop  offset="1" style="stop-color:#F09731"/>
	</linearGradient>
	<path style="fill:url(#SVGID_00000137822270461093460660000005449036675022218632_);" d="M480.9,222.1
		c-94.1-5.6-91.2,143.2,4.3,138.8C554.6,357.6,633,231.2,480.9,222.1z M507.6,389.3l0.9-0.1c-168.9,35.6-183.9-157.4-79.7-194.1
		C601.9,134.3,705.4,347.4,507.6,389.3z"/>
	<path class="st5" d="M509,391.7c49.4-10.6,80.5-32,96.3-57.6c15.9-25.8,16.1-55.4,4.4-81.5c-23.4-52.3-94.1-90.8-181.8-60l0,0
		c-53.7,18.9-76.4,77.9-64.2,127.3c6.1,24.8,20.9,47.4,45.2,61.5c24.2,14.1,57.5,19.4,100.2,10.4L509,391.7z M533.5,337.1
		c-14.4,12.2-31.8,20.4-48.4,21.2c-23.1,1.1-40.4-7.1-52.1-19.8c-11.7-12.7-17.9-30.1-18.4-47.5c-0.4-17.4,4.9-34.7,15.8-47.2
		c10.9-12.4,27.5-20.4,50.3-19.1c37.7,2.2,60.5,11.8,72.8,24.2c12.1,12.4,14.4,28.1,9.9,43.9C559.1,308.9,547.9,324.9,533.5,337.1z"
		/>
</g>
<g>
	
		<linearGradient id="SVGID_00000174569271427744960260000005319588586270337703_" gradientUnits="userSpaceOnUse" x1="-380.091" y1="727.8302" x2="-267.187" y2="207.2942" gradientTransform="matrix(1 0 0 -1 564 864.6627)">
		<stop  offset="0" style="stop-color:#F6D05E"/>
		<stop  offset="1" style="stop-color:#F09731"/>
	</linearGradient>
	<path style="fill:url(#SVGID_00000174569271427744960260000005319588586270337703_);" d="M124.3,211.8c4.4,19.8,9,41.5,13.7,64.4
		C313.5,240.7,308.6,161.6,124.3,211.8z M266.8,301.4c52.9,77.8,115.8,141.4,156.5,204.6L361,535.9
		c-64.1-76.8-103.1-121.7-158.5-206.3c-15.3,5.2-32.6,10-51.1,14.3c12.7,67.7,23.6,136.2,27.9,181.3l-68.9,6.5
		C101,426.4,69.7,276.4,44.8,173.2C324.3,53.9,426.2,209.2,266.8,301.4z"/>
	<path class="st5" d="M270.6,302.3c38.7-22.9,62-49.8,70.6-75.7c8.8-26.7,2-52.1-19-70.6c-20.9-18.3-55.6-29.5-102.4-28.7
		c-46.8,0.8-105.9,13.5-176,43.5l-2.1,0.9l0.5,2.2C67.1,277,98.3,426.9,107.6,532l0.2,2.7l2.7-0.3l68.9-6.5l2.7-0.3l-0.3-2.7
		c-4.2-44.7-14.9-112.1-27.4-179c16.9-4,32.7-8.4,46.9-13.1c50.4,76.8,87.5,121,142.5,186.8c4.9,5.8,9.9,11.8,15.1,18l1.3,1.6
		l1.9-0.9l62.3-29.9l2.7-1.3l-1.6-2.5c-20.5-31.7-46.5-63.5-73.9-97l-0.2-0.3C324.6,374.5,296.4,340,270.6,302.3z M140.1,273.1
		c-4.3-21-8.5-41-12.6-59.4c44.7-12,78.5-16.3,101.3-15.4c11.6,0.4,20.3,2.2,26,4.8c5.8,2.6,8.2,5.8,8.6,9c0.4,3.3-1.2,7.7-6,13
		c-4.8,5.2-12.4,10.9-22.9,16.6C213.9,253,182.5,264.3,140.1,273.1z"/>
</g>
<defs>
	<filter id="Adobe_OpacityMaskFilter" filterUnits="userSpaceOnUse" x="-62.6" y="151.4" width="960.9" height="454.5">
		<feColorMatrix  type="matrix" values="1 0 0 0 0  0 1 0 0 0  0 0 1 0 0  0 0 0 1 0"/>
	</filter>
</defs>
<mask maskUnits="userSpaceOnUse" x="-62.6" y="151.4" width="960.9" height="454.5" id="mask0_27_2576_00000016757350595881897540000000110141558342853807_">
	
		<linearGradient id="SVGID_00000018206303954745560170000002391515673498731396_" gradientUnits="userSpaceOnUse" x1="198.6275" y1="792.7456" x2="208.2274" y2="426.8601" gradientTransform="matrix(1 0 0 -1 564 864.6627)">
		<stop  offset="0" style="stop-color:#F0C031"/>
		<stop  offset="1" style="stop-color:#8A6F1C"/>
	</linearGradient>
	<path style="fill:url(#SVGID_00000018206303954745560170000002391515673498731396_);filter:url(#Adobe_OpacityMaskFilter);" d="
		M764.3,138c-104.4-21.4-113.5,240-6.7,244.2C835.1,385,932.9,172.9,764.3,138z M780.1,434.9l1,0C590,476.4,589.2,135.7,708.4,84.2
		C906.3-1.1,1003.9,386,780.1,434.9z"/>
	
		<linearGradient id="SVGID_00000092453664668056157070000011926704402075031189_" gradientUnits="userSpaceOnUse" x1="-84.2376" y1="680.1929" x2="-66.0805" y2="472.9622" gradientTransform="matrix(1 0 0 -1 564 864.6627)">
		<stop  offset="0" style="stop-color:#F0C031"/>
		<stop  offset="1" style="stop-color:#8A6F1C"/>
	</linearGradient>
	<path style="fill:url(#SVGID_00000092453664668056157070000011926704402075031189_);" d="M480.9,222.1
		c-94.1-5.6-91.2,143.2,4.3,138.8C554.6,357.6,633,231.2,480.9,222.1z M507.6,389.3l0.9-0.1c-168.9,35.6-183.9-157.4-79.7-194.1
		C601.9,134.3,705.4,347.4,507.6,389.3z"/>
	
		<linearGradient id="SVGID_00000092446399380286545100000000164430060346412214_" gradientUnits="userSpaceOnUse" x1="-349.7806" y1="735.0955" x2="-310.4686" y2="318.6385" gradientTransform="matrix(1 0 0 -1 564 864.6627)">
		<stop  offset="0" style="stop-color:#F0C031"/>
		<stop  offset="1" style="stop-color:#8A6F1C"/>
	</linearGradient>
	<path style="fill:url(#SVGID_00000092446399380286545100000000164430060346412214_);" d="M124.3,211.8c4.4,19.8,9,41.5,13.7,64.4
		C313.5,240.7,308.6,161.6,124.3,211.8z M266.8,301.4c52.9,77.8,115.8,141.4,156.5,204.6L361,535.9
		c-64.1-76.8-103.1-121.7-158.5-206.3c-15.3,5.2-32.6,10-51.1,14.3c12.7,67.7,23.6,136.2,27.9,181.3l-68.9,6.5
		C101,426.4,69.7,276.4,44.8,173.2C324.3,53.9,426.2,209.2,266.8,301.4z"/>
</mask>
<g class="st11">
	<path class="st12" d="M826.6,209.3c21.2-1.6,37.3-16.4,36.1-33c-1.2-16.7-13.8-26.3-35-24.7c-21.2,1.6-42.9,13.8-41.6,30.4
		C787.3,198.7,805.4,210.9,826.6,209.3z M56.6,552.9c61.2-4.6,107.1-57.9,102.5-119.1c-4.6-61.2-41.5-97.2-102.7-92.6
		c-61.2,4.6-123.4,48-118.9,109.2C-57.8,511.6-4.5,557.5,56.6,552.9z M188.8,572.6c44.8,44.6,117.3,44.4,161.8-0.4
		c44.6-44.8,47.7-97.9,2.9-142.4c-44.8-44.6-120.6-63.8-165.1-18.9C143.8,455.6,144,528.1,188.8,572.6z M540.4,374.9
		c3.1,41.6-28.1,77.9-69.7,81c-41.6,3.1-77.9-28.1-81-69.7c-3.1-41.6,39.2-71.1,80.8-74.2C512.2,308.8,537.3,333.3,540.4,374.9z
		 M898.1,327.2c2.6,34.9-23.6,65.2-58.4,67.8c-34.9,2.6-65.2-23.6-67.8-58.4c-2.6-34.9,32.9-59.6,67.7-62.2
		C874.4,271.9,895.5,292.4,898.1,327.2z M635,336.2c10.6-0.8,18.5-10,17.7-20.5c-0.8-10.6-7.2-16.8-17.7-16
		c-10.6,0.8-21.3,8.3-20.5,18.8C615.2,329.1,624.4,337,635,336.2z M664.8,348.8c0.4,5-3.4,9.4-8.5,9.8c-5,0.4-9.4-3.4-9.8-8.5
		c-0.4-5,4.8-8.6,9.8-9C661.4,340.8,664.4,343.8,664.8,348.8z M695,427.4c18.8-1.4,33-17.8,31.6-36.6c-1.4-18.8-12.8-29.9-31.6-28.5
		c-18.8,1.4-38,14.8-36.6,33.6C659.8,414.7,676.2,428.8,695,427.4z"/>
</g>
<path class="st13" d="M764.8,135.4L764.8,135.4c-13.6-2.8-25.8-1-36.4,4.4c-10.6,5.4-19.4,14.2-26.5,25.3
	c-14.2,22.1-21.9,53.4-22.9,85.3c-1,31.9,4.7,64.8,17.4,90c12.8,25.3,32.9,43.3,60.9,44.4h0c20.6,0.7,42-12.7,59.6-33
	c17.7-20.4,32.2-48.1,38.8-77.1c6.6-29,5.5-59.4-8.2-84.8C833.8,164.4,807.6,144.3,764.8,135.4z M779.5,432.3l0,0.2
	c-46.4,9.8-81-3.4-105.2-29.5c-24.6-26.3-38.7-66-43.3-108.9c-4.6-42.8,0.5-88.6,14.1-126.7c13.6-38.2,35.5-68.3,64.3-80.8
	c48.6-20.9,90.8-12.9,123.5,11.6c32.9,24.6,56.4,65.9,66.9,111.6c10.5,45.7,7.9,95.3-11.1,136.5
	C869.8,387.5,834.6,420.2,779.5,432.3z"/>
<path class="st13" d="M481.1,219.4L481.1,219.4c-24.3-1.4-42.6,7.1-54.6,20.9c-12,13.7-17.6,32.3-17.2,50.8c0.5,18.5,7,37.2,19.8,51
	c12.8,13.8,31.6,22.6,56.3,21.5h0c18.1-0.9,36.5-9.7,51.5-22.4c15-12.7,26.9-29.6,31.7-46.8c4.8-17.3,2.5-35.1-11.3-49.1
	C543.8,231.4,519.4,221.7,481.1,219.4z M507,386.7l0,0.1c-41.3,8.5-72.9,3.1-95.6-10c-22.8-13.3-36.9-34.5-42.7-58.1
	c-11.6-47.3,10.3-103.2,60.8-121c85.4-30,153,7.6,175.2,57.2c11.1,24.7,10.8,52.5-4,76.6C585.9,355.5,556,376.3,507,386.7z"/>
<path class="st13" d="M123.6,209.2l-2.5,0.7l0.6,2.5c4.4,19.8,9,41.5,13.7,64.4l0.5,2.6l2.6-0.5c44-8.9,76.9-20.6,98.6-32.4
	c10.8-5.9,18.9-11.9,24.3-17.7c5.3-5.7,8.1-11.6,7.4-17.3c-0.7-5.8-5.1-10.2-11.7-13.2c-6.6-3-16-4.8-28-5.3
	C205,192.1,169.8,196.6,123.6,209.2z M265.5,299.1l-2.5,1.4l1.6,2.4c26.4,38.9,55.3,74.2,82.6,107.6l0.3,0.4
	c26.7,32.6,51.9,63.4,71.9,94l-57.7,27.7c-4.7-5.6-9.3-11.1-13.7-16.4c-55.5-66.3-92.5-110.5-143.3-188l-1.1-1.7l-2,0.7
	c-15.2,5.2-32.4,10-50.9,14.2l-2.5,0.6l0.5,2.5c12.5,66.4,23.2,133.4,27.6,178.4l-63.6,6C103.1,424.2,72.6,277,47.9,174.8
	c68.7-29.1,126.5-41.4,171.9-42.2c46-0.8,79.2,10.3,98.8,27.4c19.4,17,25.7,40.2,17.5,64.9C327.9,249.7,305,276.2,265.5,299.1z"/>
<path class="st5" d="M781.6,437.4l0-0.2c56.3-12.6,92.5-46.4,112-88.7c19.5-42.5,22.1-93.4,11.4-140C894.3,162,870.3,119.5,836.2,94
	c-34.2-25.6-78.4-34-128.8-12.2l0,0c-30.8,13.3-53.4,45.1-67.3,84c-13.8,38.9-19,85.5-14.3,129.1c4.6,43.5,19,84.5,44.7,111.9
	C696.1,434.3,733,448,781.6,437.4z M813,348.4c-17.2,19.8-37.1,31.8-55.3,31.1c-25.4-1-44.2-17.3-56.4-41.5
	c-12.3-24.3-17.8-56.2-16.9-87.5c1-31.3,8.5-61.6,22-82.6c6.7-10.5,14.9-18.6,24.4-23.4c9.5-4.8,20.4-6.5,32.9-3.9
	c41.5,8.6,66.3,28,79.2,51.9c12.9,24,14.2,53,7.7,81.1C844.2,301.8,830.2,328.7,813,348.4z"/>
<path class="st5" d="M509,391.7c49.4-10.6,80.5-32,96.3-57.6c15.9-25.8,16.1-55.4,4.4-81.5c-23.4-52.3-94.1-90.8-181.8-60l0,0
	c-53.7,18.9-76.4,77.9-64.2,127.3c6.1,24.8,20.9,47.4,45.2,61.5c24.2,14.1,57.5,19.4,100.2,10.4L509,391.7z M533.5,337.1
	c-14.4,12.2-31.8,20.4-48.4,21.2c-23.1,1.1-40.4-7.1-52.1-19.8c-11.7-12.7-17.9-30.1-18.4-47.5c-0.4-17.4,4.9-34.7,15.8-47.2
	c10.9-12.4,27.5-20.4,50.3-19.1c37.7,2.2,60.5,11.8,72.8,24.2c12.1,12.4,14.4,28.1,9.9,43.9C559.1,308.9,547.9,324.9,533.5,337.1z"
	/>
<path class="st5" d="M270.6,302.3c38.7-22.9,62-49.8,70.6-75.7c8.8-26.7,2-52.1-19-70.6c-20.9-18.3-55.6-29.5-102.4-28.7
	c-46.8,0.8-105.9,13.5-176,43.5l-2.1,0.9l0.5,2.2C67.1,277,98.3,426.9,107.6,532l0.2,2.7l2.7-0.3l68.9-6.5l2.7-0.3l-0.3-2.7
	c-4.2-44.7-14.9-112.1-27.4-179c16.9-4,32.7-8.4,46.9-13.1c50.4,76.8,87.5,121,142.5,186.8c4.9,5.8,9.9,11.8,15.1,18l1.3,1.6
	l1.9-0.9l62.3-29.9l2.7-1.3l-1.6-2.5c-20.5-31.7-46.5-63.5-73.9-97l-0.2-0.3C324.6,374.5,296.4,340,270.6,302.3z M140.1,273.1
	c-4.3-21-8.5-41-12.6-59.4c44.7-12,78.5-16.3,101.3-15.4c11.6,0.4,20.3,2.2,26,4.8c5.8,2.6,8.2,5.8,8.6,9c0.4,3.3-1.2,7.7-6,13
	c-4.8,5.2-12.4,10.9-22.9,16.6C213.9,253,182.5,264.3,140.1,273.1z"/>
<g>
	<defs>
		
			<rect id="SVGID_00000051369075553532072480000002528955575107005576_" x="679.4" y="27.6" transform="matrix(0.2188 -0.9758 0.9758 0.2188 481.3393 910.9644)" width="260.4" height="254.5"/>
	</defs>
	<clipPath id="SVGID_00000152945887801181951690000004594492835799806135_">
		<use xlink:href="#SVGID_00000051369075553532072480000002528955575107005576_"  style="overflow:visible;"/>
	</clipPath>
	<g style="clip-path:url(#SVGID_00000152945887801181951690000004594492835799806135_);">
		<path class="st15" d="M786.8,66.4c-6.9,4.6-18.3,12.1-32.2,21.4c-13.9,9.3-30.2,20.3-41,27.4c-10.8,7.2-16.2,10.5-19,12.9
			c-2.8,2.4-3,4-3.1,5.3c-0.1,1.3,0.1,2.5,1.8,5.5c1.7,3,5,8,13.4,20.4c8.4,12.5,22,32.4,35,51.5c13,19,25.5,37.1,32.5,47.5
			c7,10.4,8.7,13,10.4,14.5c1.7,1.6,3.5,2.1,5.3,2.1s3.7-0.5,10-4.7c6.4-4.1,17.3-11.9,38.1-26.4c20.9-14.5,51.8-35.9,68.3-47.5
			c16.5-11.6,18.6-13.5,19.7-15.3c1.1-1.8,1.3-3.6,1.1-4.8c-0.2-1.2-0.7-1.9-3.6-6.2c-2.9-4.2-8.2-12-21.3-31.4
			c-13.1-19.4-34.1-50.4-46.6-68.7c-12.4-18.3-16.3-23.8-18.8-26.8c-2.5-3.1-3.5-3.7-4.3-4.1c-0.9-0.4-1.6-0.5-2.4-0.5
			c-0.8,0-1.8,0.2-2.8,0.6c-1.1,0.5-2.2,1.2-7.1,4.5c-4.9,3.3-13.4,9.2-18.8,12.9C796,60.3,793.7,61.8,786.8,66.4L786.8,66.4z"/>
		<path class="st16" d="M767.3,83.4c-15.7,10.5-31.7,21.1-43.5,29c-11.9,7.9-19.6,13-23.7,16c-4.1,3-4.5,3.7-4.8,4.5
			c-0.3,0.7-0.5,1.5-0.6,2.1c0,0.6,0.1,1.2,3.7,6.4c3.6,5.2,10.7,15.1,24.7,35.6s35,51.7,46.6,69c11.6,17.4,13.8,20.9,15.3,23
			c1.5,2.1,2.3,2.7,3,3c0.7,0.3,1.4,0.3,5-1.9c3.6-2.3,10-6.8,23.8-16.2c13.7-9.4,34.6-23.7,53.1-36.4c18.5-12.7,34.5-23.9,43-29.9
			c8.5-6,9.6-6.9,10.3-7.8c0.7-0.9,1-1.9,1-2.6c0-0.7-0.3-1.2-4.1-6.9c-3.9-5.7-11.3-16.7-25.1-36.7c-13.7-20.1-33.7-49.2-45-65.6
			c-11.2-16.4-13.7-20-15.1-22c-1.4-2-1.8-2.5-2.2-2.8c-0.5-0.3-1-0.4-1.6-0.5s-1.2-0.2-1.7-0.1c-0.5,0.1-1,0.4-3.6,2
			c-2.5,1.7-7.1,4.7-17.1,11.4C798.6,62.6,783.1,72.9,767.3,83.4L767.3,83.4z M778,82c-16,10.6-38.2,25.4-52.1,34.6
			s-19.4,13.1-22.3,15c-2.9,2-3.1,2.2-3.2,2.4c-0.1,0.2-0.2,0.5-0.2,0.8c0,0.3,0.1,0.7,3.1,5.4c3,4.7,8.9,13.7,23.1,34.7
			c14.2,21,36.8,54,48.5,71.1c11.7,17.1,12.4,18.3,13,19c0.6,0.8,1.1,1.2,1.6,1.3c0.5,0.1,1.1-0.2,4.4-2.3
			c3.3-2.2,9.2-6.2,29.6-20.3c20.4-14.1,55.2-38.2,73.4-50.8c18.2-12.5,19.8-13.4,20.7-14.1c0.9-0.7,1-1.3,0.9-1.9
			c-0.1-0.6-0.4-1.2-4.7-7.6c-4.3-6.4-12.6-18.7-25.4-37.5c-12.8-18.8-30.2-44.2-40.5-59.1c-10.2-14.9-13.3-19.3-15-21.7
			s-2-2.8-2.4-3c-0.4-0.2-0.7-0.2-1.2-0.1c-0.4,0.1-0.9,0.2-3.6,2c-2.7,1.8-7.7,5.4-15,10.3C803.6,65,793.9,71.4,778,82L778,82z"/>
		<path class="st16" d="M781,122.3c-1.5,1.2-3.2,2.8-5.4,4.6c-2.2,1.8-4.8,3.7-7.8,5.5c-3,1.8-6.3,3.6-9.3,5c-3,1.4-5.6,2.6-8,3.3
			c-2.4,0.8-4.5,1.2-6.7,1.2c-2.1,0-4.3-0.3-6.4-1c-2.1-0.6-4.2-1.6-5.9-3c-1.8-1.4-3.3-3.4-4.4-5.4c-1.2-2-2-4.1-2.5-5.5
			c-0.5-1.5-0.6-2.3-0.8-2.4c-0.1-0.1-0.3,0.4-0.2,1.7c0,1.3,0.3,3.5,0.8,5.6c0.6,2.1,1.5,4.2,2.8,6.4c1.3,2.2,3.1,4.3,5.5,6.1
			c2.4,1.8,5.5,3.2,8.4,4.1c2.9,0.9,5.6,1.3,8.9,0.9c3.3-0.3,7.2-1.4,11.5-2.7c4.2-1.3,8.8-2.9,12.6-4.1c3.8-1.2,6.7-2.2,8.3-2.7
			c1.7-0.5,2-0.6,2.3-0.6c0.2,0,0.3,0,0.7,0.8c0.5,0.8,1.3,2.3,2.7,4.3c1.4,1.9,3.3,4.3,5.1,6.4c1.7,2.2,3.2,4.2,4.7,5.8
			c1.5,1.6,3.1,2.7,4.3,3.5c1.2,0.8,2,1.2,2.4,1.4c0.4,0.3,0.5,0.4,0.5,1.2c0.1,0.8,0.2,2.4,0.7,4.5c0.6,2.1,1.6,4.7,2.3,7.2
			c0.8,2.6,1.3,5.1,1.7,7.8c0.5,2.7,0.9,5.6,1.2,8c0.3,2.4,0.3,4.4,0.5,5.8c0.1,1.4,0.2,2.3,0.7,2.9c0.5,0.6,1.3,1,2.9,1.6
			c1.6,0.6,4,1.5,7,2.6c3,1.1,6.5,2.5,9.8,3.7c3.3,1.2,6.5,2.3,8.7,3.1c2.1,0.8,3.3,1.3,4.1,1.7c0.8,0.4,1.3,0.8,2,1.2
			c0.7,0.4,1.6,1,2.4,1.3c0.8,0.3,1.3,0.4,1.9,0.5c0.6,0.1,1.1,0.3,1.6,0.5c0.4,0.2,0.8,0.4,1.2,0.3c0.4-0.1,0.9-0.4,1.4-0.6
			c0.5-0.2,1-0.2,1.5-0.1c0.5,0.1,0.9,0.2,1.3,0.3c0.3,0.1,0.6,0.2,0.6,0.1c0-0.1-0.3-0.4-0.7-0.8c-0.4-0.3-0.9-0.7-1.5-1.2
			c-0.6-0.5-1.4-1.2-2.1-1.7c-0.7-0.5-1.4-0.9-1.9-1.1c-0.5-0.2-1-0.1-1.4-0.1s-0.9,0-1.3-0.2c-0.4-0.2-0.8-0.6-1.4-0.9
			c-0.5-0.4-1.2-0.7-3.1-1.7c-1.9-1-5.1-2.6-8.8-4.5c-3.7-1.9-7.9-4-10.8-5.4c-2.9-1.4-4.5-2.2-5.5-2.7c-0.9-0.5-1.2-0.8-1.4-2
			c-0.2-1.2-0.4-3.3-0.4-6c0-2.8,0.2-6.2,0.5-9.4c0.4-3.2,1-6.3,1.4-8c0.4-1.7,0.6-2.1,1.7-3.3c1.1-1.2,3-3.2,4.2-4.4
			c1.1-1.2,1.5-1.5,1.7-1.6c0.2-0.1,0.4-0.1,1.3,0.3c0.9,0.4,2.7,1.3,3.7,1.9c1,0.5,1.2,0.7,1.3,0.9c0.1,0.2,0.1,0.3-0.6,2.2
			c-0.7,1.9-2,5.5-3,8.1c-0.9,2.6-1.5,4.1-1.9,5c-0.4,0.9-0.6,1.1-0.9,1.1c-0.3,0-0.7-0.1-1-0.4c-0.3-0.3-0.4-0.9-0.5-1.5
			c-0.1-0.6-0.2-1.3-0.2-1.8c0-0.5,0.2-0.9,0.1-1c0-0.1-0.3,0.1-0.5,0.4c-0.2,0.3-0.5,0.8-0.7,1.4c-0.2,0.6-0.4,1.3-0.4,2.1
			c0,0.7,0.1,1.4,0.3,2c0.3,0.6,0.7,1,1.4,1.3c0.6,0.3,1.5,0.3,2.2,0.2c0.7-0.1,1.2-0.3,1.8-0.8c0.6-0.5,1.5-1.2,2.6-2.3
			c1.1-1.1,2.6-2.7,4-4.2c1.4-1.5,2.8-3,3.7-4c0.9-1,1.2-1.5,1.8-2c0.6-0.5,1.4-0.9,2.9-1.3c1.5-0.4,3.7-0.7,5.1-0.9
			c1.3-0.3,1.8-0.4,2.6-1.3c0.8-0.9,2.1-2.4,2.9-3.3c0.8-0.9,1.3-1.2,1.8-1.5c0.5-0.3,1.2-0.5,2.4-1.2c1.3-0.6,3.2-1.7,4.5-2.6
			c1.3-0.9,2-1.7,2.5-2.2c0.5-0.5,0.7-0.8,0.9-0.9c0.2-0.1,0.5-0.1,1.1,0c0.6,0.1,1.6,0.3,2.7,0.4c1.1,0.2,2.2,0.3,3.1,0.3
			c0.9,0,1.5-0.2,1.9-0.2c0.5-0.1,0.8,0,1.2,0.1c0.5,0.1,1.1,0.4,1.6,0.5c0.5,0.1,1,0.2,1.4,0.1c0.4-0.1,0.8-0.2,1.3-0.1
			c0.5,0.1,1,0.5,1.5,0.8c0.4,0.2,0.7,0.3,1.2,0.1c0.5-0.2,1.3-0.6,1.6-1c0.4-0.5,0.4-1.1,0.3-1.6c-0.1-0.6-0.4-1.1-0.9-1.8
			c-0.5-0.7-1.3-1.6-2.6-2.9c-1.3-1.3-3-3-4.2-4c-1.2-1.1-1.8-1.5-2.3-1.8c-0.5-0.3-0.7-0.4-1-0.5c-0.2-0.2-0.3-0.5-0.7-0.9
			c-0.4-0.4-1.1-1-1.7-1.5c-0.6-0.5-1.1-0.9-1.5-1.2c-0.5-0.2-0.9-0.2-1.2-0.3c-0.4,0-0.7-0.1-0.9-0.3c-0.2-0.2-0.4-0.5-0.9-1.1
			c-0.4-0.6-1.1-1.6-1.8-2.6c-0.7-1-1.6-1.9-2.5-2.7c-0.9-0.8-1.9-1.4-2.7-1.7c-0.8-0.4-1.5-0.5-2-0.7c-0.6-0.2-1-0.5-1.4-0.7
			c-0.4-0.2-0.7-0.3-1-0.3c-0.2,0.1-0.4,0.3-0.4,0.7c0,0.4,0,1,0.2,1.4c0.2,0.5,0.4,0.8,0.7,1.2c0.3,0.3,0.5,0.6,0.7,0.9
			c0.1,0.3,0.1,0.5,0.3,1c0.2,0.5,0.5,1.1,1.4,1.8c0.9,0.7,2.2,1.4,3.1,1.9c0.9,0.6,1.3,1,1.6,1.4c0.3,0.4,0.6,0.6,0.7,0.8
			c0,0.2-0.1,0.3-0.7,0.5c-0.5,0.2-1.4,0.5-2.3,0.8c-0.9,0.3-1.7,0.8-2.4,1.1c-0.7,0.4-1.2,0.6-1.8,0.8c-0.6,0.2-1.2,0.3-1.7,0.4
			c-0.5,0-0.9-0.1-1.4-0.4c-0.5-0.3-1.2-0.8-2-1.4c-0.8-0.5-1.8-1.1-2.5-1.5c-0.7-0.4-1.2-0.6-1.8-0.8c-0.5-0.2-1.1-0.4-1.4-0.7
			c-0.4-0.3-0.6-0.8-1.1-1.8c-0.4-0.9-1.1-2.3-2-4.1c-0.9-1.7-2.1-3.9-3.2-5.7c-1.1-1.9-2.1-3.4-3.3-5.1c-1.2-1.7-2.4-3.5-3.8-5.1
			c-1.3-1.6-2.7-2.9-4.1-4.1c-1.4-1.2-2.7-2.1-4-2.9s-2.6-1.3-4-1.8c-1.3-0.5-2.7-1-4.1-1.3c-1.5-0.3-3.1-0.5-4.7-0.5
			c-1.6,0-3.3,0.2-4.9,0.5c-1.6,0.3-3,0.9-4.7,1.5c-1.7,0.7-3.6,1.5-5.9,2.7s-4.9,3-7,4.6c-2.2,1.6-4,3-5.6,4.1
			C783.8,120.1,782.5,121,781,122.3L781,122.3z"/>
	</g>
</g>
</svg>
