<svg width="57" height="35" viewBox="0 0 57 35" fill="none" xmlns="http://www.w3.org/2000/svg">
<path id="Vector" fill-rule="evenodd" clip-rule="evenodd" d="M19.0773 8.52131C18.6583 9.0702 18.2073 9.73773 17.6163 10.5097C17.0244 11.2808 16.2918 12.1555 15.4261 13.0214C14.5603 13.8881 13.5624 14.746 12.6647 15.4719C11.767 16.1979 10.9704 16.7919 10.2291 17.2417C9.48869 17.6914 8.8044 17.9968 8.08383 18.1695C7.36326 18.343 6.6064 18.3837 5.84954 18.3262C5.09268 18.2686 4.33582 18.1119 3.63167 17.7534C2.92665 17.3948 2.2752 16.8335 1.73174 16.2315C1.18829 15.6295 0.753702 14.9859 0.479816 14.5237C0.20593 14.0616 0.0936105 13.7818 0.0365869 13.7402C-0.0195728 13.6995 -0.019573 13.8969 0.0970662 14.3555C0.213705 14.8132 0.446984 15.5312 0.797766 16.22C1.14768 16.9088 1.6151 17.5692 2.22249 18.2084C2.83074 18.8476 3.57896 19.4665 4.52072 19.8994C5.46247 20.3323 6.59776 20.5802 7.63715 20.6625C8.67567 20.7448 9.61742 20.6625 10.7043 20.2871C11.7912 19.9118 13.0233 19.2434 14.3512 18.4598C15.6792 17.6763 17.1048 16.7769 18.2721 16.0553C19.4393 15.3338 20.3491 14.7893 20.864 14.4839C21.3798 14.1785 21.4999 14.113 21.5725 14.0882C21.6451 14.0634 21.6684 14.0802 21.8827 14.3192C22.0961 14.5583 22.4987 15.0204 23.1147 15.5773C23.7308 16.1341 24.5602 16.7857 25.3007 17.4046C26.0411 18.0234 26.6934 18.6086 27.3293 19.038C27.9652 19.4673 28.5856 19.7391 29.0443 19.9126C29.5031 20.0862 29.8012 20.1605 29.9619 20.2137C30.1226 20.2677 30.1468 20.3004 30.2358 20.5811C30.3239 20.8617 30.4768 21.3894 30.8198 22.0622C31.162 22.7341 31.6933 23.5513 32.14 24.3799C32.5867 25.2095 32.9496 26.0505 33.3116 26.95C33.6736 27.8495 34.0365 28.8065 34.3061 29.6192C34.5756 30.432 34.7527 31.1004 34.8979 31.5829C35.0431 32.0654 35.1554 32.3628 35.3645 32.5399C35.5735 32.717 35.8794 32.7745 36.4712 32.8613C37.0631 32.948 37.9409 33.064 39.0235 33.2163C40.1061 33.3685 41.3943 33.5589 42.6099 33.7191C43.8256 33.8803 44.9695 34.0122 45.7505 34.1149C46.5316 34.2184 46.9498 34.2928 47.2522 34.3707C47.5537 34.4495 47.7395 34.5318 48.009 34.6266C48.2786 34.7213 48.6328 34.8293 48.9102 34.8745C49.1875 34.9196 49.3888 34.9028 49.5901 34.9072C49.7914 34.9116 49.9928 34.9355 50.1578 34.9648C50.3228 34.994 50.4515 35.0267 50.5846 34.9648C50.7176 34.9028 50.8542 34.7461 51.0114 34.6469C51.1678 34.5478 51.3458 34.5071 51.5151 34.4858C51.6836 34.4654 51.8452 34.4654 51.9696 34.4734C52.094 34.4823 52.183 34.4982 52.1631 34.461C52.1432 34.4238 52.0136 34.3327 51.8529 34.2503C51.6914 34.168 51.4978 34.0936 51.249 33.9661C50.9993 33.8386 50.6926 33.6563 50.4152 33.5288C50.1379 33.4013 49.8882 33.3269 49.6947 33.3101C49.5011 33.2933 49.3646 33.3349 49.2238 33.3721C49.083 33.4093 48.9378 33.442 48.7814 33.4093C48.6242 33.3765 48.4548 33.2774 48.2458 33.1906C48.0367 33.1038 47.787 33.0295 47.0664 32.832C46.3458 32.6346 45.1544 32.3124 43.7737 31.9494C42.3931 31.5864 40.8232 31.1827 39.7363 30.91C38.6494 30.6382 38.0454 30.4975 37.6877 30.3859C37.3292 30.2744 37.2169 30.192 37.0518 29.7998C36.8868 29.4076 36.6691 28.7074 36.46 27.7583C36.2509 26.8101 36.0496 25.6132 35.933 24.4711C35.8163 23.3282 35.7835 22.2393 35.7921 21.6213C35.7999 21.0025 35.8483 20.8537 36.1222 20.3544C36.3961 19.8551 36.8955 19.0061 37.1927 18.5147C37.4908 18.0234 37.5867 17.8915 37.6558 17.8215C37.724 17.7516 37.7638 17.7436 38.1102 17.826C38.4567 17.9083 39.1081 18.0818 39.4788 18.1889C39.8495 18.2961 39.9376 18.3377 39.9825 18.3828C40.0266 18.428 40.0266 18.4784 39.9384 19.1787C39.8503 19.8799 39.6723 21.2327 39.5522 22.1941C39.4313 23.1556 39.3673 23.7239 39.3025 24.0541C39.2377 24.3844 39.1738 24.4756 39.0693 24.5127C38.9647 24.5499 38.8196 24.5331 38.7029 24.4348C38.5863 24.3357 38.4973 24.1542 38.4126 23.9523C38.328 23.7505 38.2476 23.5274 38.2156 23.3459C38.1837 23.1644 38.1992 23.0245 38.1794 22.9953C38.1595 22.967 38.1025 23.0493 38.0506 23.1848C37.9979 23.3211 37.9495 23.5106 37.9262 23.7381C37.902 23.9647 37.902 24.2286 37.9461 24.4809C37.9901 24.7323 38.0791 24.9722 38.2156 25.1537C38.3522 25.3352 38.537 25.4591 38.7746 25.4999C39.0122 25.5415 39.3025 25.4999 39.5194 25.4175C39.7371 25.3352 39.8814 25.2113 40.0629 24.9926C40.2443 24.7739 40.4612 24.4605 40.7558 23.9816C41.0495 23.5035 41.4202 22.8599 41.7822 22.2242C42.1442 21.5894 42.4985 20.9626 42.7162 20.5456C42.9331 20.1287 43.0134 19.9224 43.1706 19.7161C43.3279 19.5098 43.5612 19.3036 44.0407 19.0601C44.5193 18.8166 45.2442 18.536 45.671 18.3465C46.0979 18.1571 46.2266 18.0579 46.4435 17.6949C46.6603 17.332 46.967 16.7052 47.1805 16.3254C47.3939 15.9456 47.514 15.8136 47.6712 15.6817C47.8284 15.5498 48.0211 15.4179 48.4039 15.0957C48.7866 14.7743 49.3577 14.2626 49.7327 13.8456C50.1068 13.4286 50.2839 13.1072 50.3971 12.893C50.5094 12.6787 50.5578 12.5716 50.6226 12.5132C50.6865 12.4556 50.7669 12.4477 50.9846 12.4353C51.2023 12.4229 51.5566 12.4061 51.9264 12.3769C52.2962 12.3476 52.6832 12.3069 52.9735 12.237C53.263 12.167 53.4565 12.0679 53.6094 12.0139C53.7624 11.9608 53.8747 11.9519 54.0397 11.9643C54.2047 11.9767 54.4216 12.0094 54.6073 12.0139C54.7931 12.0183 54.9452 11.9935 55.0825 11.9395C55.2191 11.8864 55.34 11.8032 55.5085 11.812C55.6778 11.82 55.8956 11.9191 56.0563 11.9643C56.2178 12.0094 56.3224 12.0015 56.4831 11.9023C56.6438 11.8032 56.8615 11.6137 56.9496 11.4198C57.0386 11.2259 56.9989 11.0276 56.9142 10.8417C56.8295 10.6558 56.7008 10.4832 56.4667 10.2769C56.2334 10.0706 55.8947 9.83157 55.3677 9.48895C54.8406 9.14722 54.1235 8.70103 53.644 8.42481C53.1653 8.14859 52.9243 8.04058 52.7515 7.98304C52.5787 7.92549 52.4733 7.91752 52.3895 7.86794C52.3048 7.81837 52.24 7.72718 52.0707 7.61209C51.9022 7.49611 51.6283 7.35623 51.395 7.22786C51.1617 7.10038 50.9682 6.98529 50.7997 6.94368C50.6304 6.90207 50.4852 6.93571 50.3608 6.9481C50.2364 6.9605 50.131 6.95253 50.0351 6.90649C49.9383 6.86134 49.8493 6.77901 49.661 6.58867C49.4718 6.39921 49.1815 6.10174 48.8635 5.82553C48.5456 5.54931 48.1991 5.29345 47.8371 5.09957C47.4751 4.90568 47.0966 4.77377 46.7942 4.70737C46.4918 4.64186 46.2672 4.64186 46.0659 4.61264C45.8646 4.58431 45.6875 4.52588 45.538 4.4887C45.3894 4.45152 45.2684 4.4347 45.1959 4.47188C45.1233 4.50906 45.0991 4.60025 45.1155 4.74013C45.1319 4.88089 45.1881 5.07035 45.2762 5.2182C45.3652 5.36693 45.4853 5.47406 45.6028 5.56524C45.7194 5.65643 45.8318 5.72991 45.8966 5.81224C45.9605 5.89458 45.9769 5.98577 46.0694 6.13007C46.1618 6.27438 46.3311 6.47269 46.669 6.63736C47.0068 6.80203 47.514 6.93394 47.8526 7.06231C48.1905 7.19068 48.3598 7.31374 48.5041 7.41289C48.6492 7.51205 48.7702 7.58641 48.8022 7.65193C48.8341 7.71833 48.778 7.77587 48.6095 7.88742C48.4402 7.99897 48.1585 8.16364 47.8932 8.34956C47.6271 8.53547 47.3783 8.74175 47.177 8.91439C46.9757 9.08791 46.8228 9.22779 46.65 9.34288C46.4772 9.45797 46.2836 9.54916 46.1143 9.59431C45.9449 9.63946 45.8007 9.63946 45.5993 9.57395C45.398 9.50843 45.1406 9.37652 44.8261 9.25258C44.5124 9.12863 44.1418 9.01354 43.8636 8.93918C43.5854 8.86481 43.4005 8.83205 43.2113 8.80284C43.022 8.77451 42.8285 8.74972 42.6721 8.66296C42.5149 8.5762 42.3939 8.42835 42.1771 8.13885C41.9593 7.85024 41.6457 7.42086 41.2068 6.88879C40.7679 6.35671 40.2046 5.72194 39.6896 5.16862C39.1747 4.61618 38.7073 4.14608 38.1923 3.65119C37.6774 3.1563 37.1132 2.63662 36.5499 2.19928C35.9865 1.76193 35.4223 1.40692 34.8789 1.11388C34.3354 0.820843 33.8119 0.590659 33.309 0.433959C32.8062 0.277258 32.3232 0.194924 31.8394 0.124099C31.3564 0.0541588 30.8734 -0.00338608 30.3576 0.000155176C29.8427 0.00458175 29.2949 0.0700969 28.7471 0.198467C28.1994 0.326838 27.6524 0.516293 27.1531 0.755328C26.6537 0.994363 26.2027 1.28298 25.6834 1.64153C25.1641 2.00008 24.5766 2.42946 23.9122 3.04387C23.2478 3.65827 22.5074 4.4586 21.8879 5.16773C21.2675 5.87687 20.769 6.49659 20.3258 7.01981C19.8825 7.54392 19.4963 7.97241 19.0782 8.52131H19.0773Z" fill="#FFD000"/>
</svg>
